<svg width="150" height="142" viewBox="0 0 150 142" fill="none" xmlns="http://www.w3.org/2000/svg">
<path d="M34.4807 59.9588C35.0495 57.9217 34.553 55.94 33.1048 55.1043C31.575 54.2218 29.4671 54.898 27.9636 56.6059C27.8941 54.3859 26.9856 52.4764 25.2991 51.5038C22.2461 49.7424 17.8078 51.7129 15.3864 55.9053C15.1133 56.377 14.8805 56.8572 14.6815 57.3393C14.4788 56.3686 13.9711 55.5629 13.1752 55.1034C11.3385 54.0436 8.66933 55.2291 7.2118 57.751C6.79509 58.4723 6.52292 59.2254 6.38965 59.9579H34.4807V59.9588Z" fill="#CCE4FF"/>
<path d="M77.4736 33.3174C77.9926 30.2909 77.101 27.4922 74.9246 26.2374C71.8387 24.4573 67.3526 26.4493 64.9039 30.6867C64.7481 30.9568 64.6045 31.2297 64.4722 31.5045C64.5792 28.3795 63.4286 25.6371 61.1067 24.2978C57.8856 22.4399 53.4483 23.8636 50.2826 27.4594C50.1371 22.785 48.2235 18.7662 44.673 16.7179C38.246 13.0095 28.903 17.1587 23.8039 25.9841C22.4177 28.3823 21.4924 30.8789 21.0024 33.3184H77.4736V33.3174Z" fill="#CCE4FF"/>
<path d="M135.411 69.4435L124.581 63.4917L106.022 94.0873L116.853 100.039L135.411 69.4435Z" fill="#CCE4FF"/>
<path d="M135.404 69.4996L124.532 63.5253C128.951 56.2408 142.434 45.9597 142.434 45.9597C142.434 45.9597 139.823 62.2141 135.404 69.4996Z" fill="#CCE4FF"/>
<path d="M142.434 45.96C142.434 45.96 142.432 45.9618 142.431 45.9628C142.399 46.1072 138.898 62.0925 134.103 69.1125L134.083 69.1003L115.477 99.2832L116.853 100.039L135.383 69.4877L135.404 69.4989C139.822 62.2144 142.434 45.96 142.434 45.96Z" fill="#008CFF"/>
<path d="M135.392 69.4951L124.525 63.5227L124.139 64.1586L135.006 70.131L135.392 69.4951Z" fill="#008CFF"/>
<path d="M89.8414 130.571C90.5059 130.571 91.0446 130.046 91.0446 129.398C91.0446 128.751 90.5059 128.226 89.8414 128.226C89.1769 128.226 88.6382 128.751 88.6382 129.398C88.6382 130.046 89.1769 130.571 89.8414 130.571Z" fill="#AEB2C1"/>
<path d="M21.6149 122.909C23.6085 122.909 25.2245 121.334 25.2245 119.391C25.2245 117.448 23.6085 115.873 21.6149 115.873C19.6214 115.873 18.0054 117.448 18.0054 119.391C18.0054 121.334 19.6214 122.909 21.6149 122.909Z" fill="#AEB2C1"/>
<path d="M102.736 133.52C103.716 133.52 104.511 132.744 104.511 131.788C104.511 130.832 103.716 130.057 102.736 130.057C101.755 130.057 100.96 130.832 100.96 131.788C100.96 132.744 101.755 133.52 102.736 133.52Z" fill="#E1E3EA"/>
<path d="M51.391 108.19C50.978 108.19 50.5651 108.174 50.1577 108.143C46.4825 107.866 42.8832 106.195 41.2276 104.69C41.1282 104.6 41.1207 104.445 41.2117 104.346C41.3027 104.246 41.4566 104.239 41.5561 104.33C43.1507 105.78 46.6298 107.388 50.1953 107.658C53.4388 107.904 57.0644 107.21 57.9353 104.605C57.1667 104.376 56.4496 104.02 55.7523 103.533C55.0888 103.068 53.6059 101.869 54.1718 100.746C54.5369 100.021 55.6425 99.7277 56.688 100.077C57.2624 100.269 59.0953 101.133 58.5444 104.182C58.5397 104.209 58.5341 104.236 58.5294 104.262C59.8095 104.548 61.2521 104.474 63.0465 104.064C66.5163 103.272 67.8724 102.642 71.421 100.558C71.5374 100.489 71.6866 100.529 71.7542 100.644C71.8227 100.76 71.7833 100.909 71.6678 100.977C68.1211 103.059 66.6627 103.737 63.1554 104.539C61.2999 104.963 59.7701 105.032 58.4083 104.728C57.5834 107.28 54.4796 108.19 51.391 108.19ZM55.8048 100.42C55.2614 100.42 54.7809 100.62 54.6063 100.965C54.3323 101.508 54.8654 102.319 56.031 103.134C56.6842 103.591 57.3478 103.924 58.0564 104.139C58.0592 104.124 58.062 104.109 58.0648 104.095C58.3905 102.297 57.818 100.968 56.5341 100.539C56.2919 100.457 56.0423 100.42 55.8048 100.42Z" fill="#121C2D"/>
<path d="M59.6319 110.689C59.5483 110.689 59.4676 110.646 59.4216 110.569C59.3531 110.454 59.3916 110.303 59.508 110.236C61.3522 109.149 62.2597 108.553 63.1373 107.978C64.0195 107.399 64.9317 106.8 66.7862 105.707C68.6408 104.614 69.614 104.102 70.5554 103.608C71.4911 103.117 72.4596 102.607 74.3039 101.52C74.4193 101.452 74.5695 101.49 74.637 101.607C74.7055 101.722 74.6671 101.872 74.5507 101.939C72.6962 103.032 71.7229 103.544 70.7816 104.038C69.8458 104.53 68.8773 105.039 67.0331 106.126C65.1889 107.213 64.2813 107.809 63.4038 108.385C62.5216 108.963 61.6093 109.563 59.7548 110.655C59.7173 110.679 59.6741 110.689 59.6319 110.689Z" fill="#121C2D"/>
<path d="M103.374 142C104.352 139.471 103.938 136.956 102.237 135.997C100.56 135.053 98.1626 135.922 96.4113 137.948C96.4535 135.47 95.5507 133.369 93.7477 132.355C91.4099 131.039 88.2039 131.914 85.5572 134.291L94.5887 104.61L82.629 98.0376L38.6909 141.999H103.374V142Z" fill="#E1E3EA"/>
<path d="M79.9175 142C80.993 139.83 80.7443 137.53 79.2755 136.704C78.3792 136.199 77.222 136.354 76.1399 137.003L91.3356 102.804L84.3614 98.9709L52.6373 140.41C54.6786 131.514 52.5275 123.347 46.4496 119.927C38.7274 115.582 27.3637 120.417 19.9597 130.776C19.4698 130.241 18.9029 129.783 18.2572 129.419C13.4707 126.726 6.23558 130.206 2.09667 137.193C1.16002 138.775 0.462694 140.4 0 142H79.9175Z" fill="#AEB2C1"/>
<path d="M96.3931 107.694L78.8867 98.0734L84.9684 91.0984L99.6657 99.2589L96.3931 107.694Z" fill="#121C2D"/>
<path d="M96.7629 106.731L79.5747 97.2857L85.0069 91.1191L99.6564 99.1699L96.7629 106.731Z" fill="#043CB5"/>
<path d="M83.5566 92.7651L98.8837 101.188L99.6561 99.1699L85.0067 91.1191L83.5566 92.7651Z" fill="#06033A"/>
<path d="M104.939 52.6967L94.1093 46.7449L75.5518 77.3414L86.3814 83.2932L104.939 52.6967Z" fill="#CCE4FF"/>
<path d="M104.921 52.7493L94.0527 46.7769L93.667 47.4118L104.535 53.3852L104.921 52.7493Z" fill="#008CFF"/>
<path d="M104.932 52.753L94.0601 46.7787C98.4786 39.4942 111.962 29.2131 111.962 29.2131C111.962 29.2131 109.351 45.4685 104.932 52.753Z" fill="#CCE4FF"/>
<path d="M111.963 29.2131C111.963 29.2131 111.96 29.215 111.959 29.216C111.927 29.3604 108.426 45.3456 103.631 52.3657L103.612 52.3535L84.9321 82.4961L86.3821 83.2923L104.912 52.7408L104.933 52.7521C109.351 45.4685 111.963 29.2131 111.963 29.2131Z" fill="#008CFF"/>
<path d="M131.432 108.902L117.817 72.9561L98.923 62.5737L60.2698 69.7935L56.1309 76.6176L127.293 115.726L131.432 108.902Z" fill="#F22F46"/>
<path d="M135.193 46.0669L115.491 35.239L81.8281 90.74L101.53 101.568L135.193 46.0669Z" fill="#FCCFCF"/>
<path d="M135.163 46.1166L115.461 35.2887C123.469 22.0871 150 0 150 0C150 0 143.171 32.915 135.163 46.1166Z" fill="#FCCFCF"/>
<path d="M150 0C150 0 149.996 0.00375118 149.989 0.00844059C149.848 0.547722 141.355 32.6542 132.733 45.3475L98.6416 99.98L101.594 101.603L135.163 46.1156C143.17 32.915 150 0 150 0Z" fill="#F22F46"/>
<path d="M117.255 58.916C120.114 58.916 122.432 56.7094 122.432 53.9874C122.432 51.2654 120.114 49.0588 117.255 49.0588C114.395 49.0588 112.077 51.2654 112.077 53.9874C112.077 56.7094 114.395 58.916 117.255 58.916Z" fill="#F22F46"/>
<path d="M117.255 57.526C119.308 57.526 120.972 55.9417 120.972 53.9874C120.972 52.033 119.308 50.4487 117.255 50.4487C115.201 50.4487 113.537 52.033 113.537 53.9874C113.537 55.9417 115.201 57.526 117.255 57.526Z" fill="#001489"/>
<path d="M118.483 54.7077C119.082 54.7077 119.568 54.245 119.568 53.6742C119.568 53.1034 119.082 52.6406 118.483 52.6406C117.884 52.6406 117.398 53.1034 117.398 53.6742C117.398 54.245 117.884 54.7077 118.483 54.7077Z" fill="#FCCFCF"/>
<path d="M133.43 48.9742L113.728 38.1473L114.301 37.2019L134.003 48.0297L133.43 48.9742Z" fill="#F22F46"/>
</svg>
